<svg id="visual" viewBox="0 0 1480 900" width="1480" height="900" xmlns="http://www.w3.org/2000/svg" xmlns:xlink="http://www.w3.org/1999/xlink" version="1.1"><rect x="0" y="0" width="1480" height="900" fill="#FFFFFF"></rect><path d="M0 324L35.2 369.2C70.3 414.3 140.7 504.7 211.2 489C281.7 473.3 352.3 351.7 422.8 364.3C493.3 377 563.7 524 634.2 589.5C704.7 655 775.3 639 845.8 621.5C916.3 604 986.7 585 1057.2 545.3C1127.7 505.7 1198.3 445.3 1268.8 453.5C1339.3 461.7 1409.7 538.3 1444.8 576.7L1480 615L1480 0L1444.8 0C1409.7 0 1339.3 0 1268.8 0C1198.3 0 1127.7 0 1057.2 0C986.7 0 916.3 0 845.8 0C775.3 0 704.7 0 634.2 0C563.7 0 493.3 0 422.8 0C352.3 0 281.7 0 211.2 0C140.7 0 70.3 0 35.2 0L0 0Z" fill="#90CAF9" stroke-linecap="round" stroke-linejoin="miter"></path></svg>