<svg xmlns="http://www.w3.org/2000/svg" width="375" viewBox="0 0 375 112.5" height="112.5" version="1.0"><g fill="#171616"><g><g><path d="M 8.359375 0.15625 C 6.953125 0.15625 5.6875 -0.148438 4.5625 -0.765625 C 3.4375 -1.390625 2.550781 -2.242188 1.90625 -3.328125 C 1.269531 -4.410156 0.953125 -5.632812 0.953125 -7 C 0.953125 -8.351562 1.269531 -9.570312 1.90625 -10.65625 C 2.550781 -11.75 3.441406 -12.601562 4.578125 -13.21875 C 5.710938 -13.84375 6.976562 -14.15625 8.375 -14.15625 C 9.46875 -14.15625 10.46875 -13.96875 11.375 -13.59375 C 12.28125 -13.226562 13.050781 -12.6875 13.6875 -11.96875 L 12.390625 -10.71875 C 11.335938 -11.820312 10.023438 -12.375 8.453125 -12.375 C 7.410156 -12.375 6.46875 -12.140625 5.625 -11.671875 C 4.789062 -11.203125 4.132812 -10.554688 3.65625 -9.734375 C 3.1875 -8.921875 2.953125 -8.007812 2.953125 -7 C 2.953125 -5.976562 3.1875 -5.054688 3.65625 -4.234375 C 4.132812 -3.421875 4.789062 -2.78125 5.625 -2.3125 C 6.46875 -1.851562 7.410156 -1.625 8.453125 -1.625 C 10.015625 -1.625 11.328125 -2.179688 12.390625 -3.296875 L 13.6875 -2.03125 C 13.050781 -1.3125 12.273438 -0.765625 11.359375 -0.390625 C 10.453125 -0.0234375 9.453125 0.15625 8.359375 0.15625 Z M 8.359375 0.15625" transform="translate(136.042 85.543)"/></g></g></g><g fill="#171616"><g><g><path d="M 11.453125 0 L 8.4375 -4.296875 C 8.0625 -4.265625 7.765625 -4.25 7.546875 -4.25 L 4.09375 -4.25 L 4.09375 0 L 2.09375 0 L 2.09375 -13.984375 L 7.546875 -13.984375 C 9.359375 -13.984375 10.785156 -13.550781 11.828125 -12.6875 C 12.867188 -11.820312 13.390625 -10.628906 13.390625 -9.109375 C 13.390625 -8.035156 13.125 -7.117188 12.59375 -6.359375 C 12.0625 -5.597656 11.300781 -5.046875 10.3125 -4.703125 L 13.625 0 Z M 7.5 -5.953125 C 8.757812 -5.953125 9.722656 -6.222656 10.390625 -6.765625 C 11.054688 -7.316406 11.390625 -8.097656 11.390625 -9.109375 C 11.390625 -10.117188 11.054688 -10.894531 10.390625 -11.4375 C 9.722656 -11.976562 8.757812 -12.25 7.5 -12.25 L 4.09375 -12.25 L 4.09375 -5.953125 Z M 7.5 -5.953125" transform="translate(150.483 85.543)"/></g></g></g><g fill="#171616"><g><g><path d="M 15.0625 0 L 15.046875 -10.1875 L 10 -1.703125 L 9.078125 -1.703125 L 4.015625 -10.125 L 4.015625 0 L 2.09375 0 L 2.09375 -13.984375 L 3.734375 -13.984375 L 9.578125 -4.15625 L 15.328125 -13.984375 L 16.96875 -13.984375 L 16.984375 0 Z M 15.0625 0" transform="translate(165.004 85.543)"/></g></g></g><g fill="#CF2525"><g><g><path d="M 0.53125 -21.796875 L 0.53125 -20.800781 L 8.90625 0.0625 L 12.765625 0.0625 L 21.171875 -21.015625 L 21.171875 -21.796875 L 15.753906 -21.796875 L 12.144531 -12.703125 L 10.867188 -8.5 L 9.589844 -12.703125 L 5.976562 -21.796875 Z M 0.53125 -21.796875" transform="translate(5.415 57.71)"/></g></g></g><g fill="#CF2525"><g><g><path d="M 0.683594 -20.550781 C 0.683594 -18.714844 2.179688 -17.808594 3.675781 -17.808594 C 5.105469 -17.808594 6.570312 -18.714844 6.570312 -20.550781 C 6.570312 -22.480469 5.074219 -23.414062 3.582031 -23.414062 C 2.148438 -23.414062 0.683594 -22.449219 0.683594 -20.550781 Z M 1.152344 -16.84375 L 6.132812 -16.84375 L 6.132812 0 L 1.152344 0 Z M 1.152344 -16.84375" transform="translate(26.675 57.71)"/></g></g></g><g fill="#CF2525"><g><g><path d="M 17.808594 -8.46875 C 17.808594 -14.230469 13.449219 -17.09375 9.121094 -17.09375 C 4.734375 -17.09375 0.40625 -14.230469 0.40625 -8.46875 C 0.40625 -2.707031 4.734375 0.1875 9.09375 0.1875 C 12.578125 0.1875 16.035156 -1.648438 17.3125 -5.324219 L 11.988281 -5.324219 C 11.269531 -4.546875 10.242188 -4.171875 9.152344 -4.171875 C 7.660156 -4.203125 6.132812 -4.980469 5.542969 -6.539062 L 17.625 -6.539062 C 17.746094 -7.160156 17.808594 -7.785156 17.808594 -8.46875 Z M 12.453125 -10.367188 L 5.730469 -10.367188 C 6.226562 -12.019531 7.566406 -12.828125 9.03125 -12.828125 C 10.617188 -12.828125 11.988281 -12.050781 12.453125 -10.367188 Z M 12.453125 -10.367188" transform="translate(35.017 57.71)"/></g></g></g><g fill="#CF2525"><g><g><path d="M 11.210938 0.03125 L 11.054688 -4.015625 C 10.617188 -3.921875 10.121094 -3.859375 9.652344 -3.859375 C 8.46875 -3.859375 7.378906 -4.328125 7.378906 -5.824219 L 7.378906 -12.453125 L 10.898438 -12.453125 L 10.898438 -16.65625 L 7.378906 -16.65625 L 7.378906 -20.300781 L 2.492188 -19.863281 L 2.492188 -16.65625 L 0.28125 -16.65625 L 0.28125 -12.453125 L 2.492188 -12.453125 L 2.492188 -5.824219 C 2.492188 -1.464844 4.734375 0.28125 8.4375 0.28125 C 9.277344 0.28125 10.210938 0.1875 11.210938 0.03125 Z M 11.210938 0.03125" transform="translate(54.938 57.71)"/></g></g></g><g fill="#CF2525"><g><g><path d="M 0.746094 -20.488281 C 0.746094 -18.558594 2.210938 -17.6875 3.707031 -17.6875 C 5.136719 -17.6875 6.601562 -18.558594 6.601562 -20.488281 C 6.601562 -22.417969 5.105469 -23.382812 3.675781 -23.382812 C 2.210938 -23.382812 0.746094 -22.417969 0.746094 -20.488281 Z M 1.214844 0.621094 L 1.214844 -16.84375 L 6.101562 -16.84375 L 6.101562 0.714844 C 6.101562 4.980469 3.332031 6.945312 -0.25 6.945312 C -0.996094 6.945312 -1.742188 6.851562 -2.554688 6.695312 L -2.367188 2.648438 C -2.023438 2.738281 -1.648438 2.769531 -1.277344 2.769531 C 0.03125 2.769531 1.214844 2.210938 1.214844 0.621094 Z M 1.214844 0.621094" transform="translate(67.856 57.71)"/></g></g></g><g fill="#CF2525"><g><g><path d="M 17.808594 -8.46875 C 17.808594 -14.230469 13.449219 -17.09375 9.121094 -17.09375 C 4.734375 -17.09375 0.40625 -14.230469 0.40625 -8.46875 C 0.40625 -2.707031 4.734375 0.1875 9.09375 0.1875 C 12.578125 0.1875 16.035156 -1.648438 17.3125 -5.324219 L 11.988281 -5.324219 C 11.269531 -4.546875 10.242188 -4.171875 9.152344 -4.171875 C 7.660156 -4.203125 6.132812 -4.980469 5.542969 -6.539062 L 17.625 -6.539062 C 17.746094 -7.160156 17.808594 -7.785156 17.808594 -8.46875 Z M 12.453125 -10.367188 L 5.730469 -10.367188 C 6.226562 -12.019531 7.566406 -12.828125 9.03125 -12.828125 C 10.617188 -12.828125 11.988281 -12.050781 12.453125 -10.367188 Z M 12.453125 -10.367188" transform="translate(76.136 57.71)"/></g></g></g><g fill="#CF2525"><g><g><path d="M 11.210938 0.03125 L 11.054688 -4.015625 C 10.617188 -3.921875 10.121094 -3.859375 9.652344 -3.859375 C 8.46875 -3.859375 7.378906 -4.328125 7.378906 -5.824219 L 7.378906 -12.453125 L 10.898438 -12.453125 L 10.898438 -16.65625 L 7.378906 -16.65625 L 7.378906 -20.300781 L 2.492188 -19.863281 L 2.492188 -16.65625 L 0.28125 -16.65625 L 0.28125 -12.453125 L 2.492188 -12.453125 L 2.492188 -5.824219 C 2.492188 -1.464844 4.734375 0.28125 8.4375 0.28125 C 9.277344 0.28125 10.210938 0.1875 11.210938 0.03125 Z M 11.210938 0.03125" transform="translate(96.057 57.71)"/></g></g></g><g fill="#CF2525"><g><g><path d="M 8.96875 -22.042969 L 0.25 0 L 5.945312 0 L 7.160156 -3.207031 L 14.601562 -3.207031 L 15.816406 0 L 21.828125 0 L 12.765625 -22.042969 Z M 10.898438 -13.265625 L 12.578125 -8.53125 L 12.703125 -8.15625 L 9.09375 -8.15625 L 9.277344 -8.65625 Z M 10.898438 -13.265625" transform="translate(116.788 57.71)"/></g></g></g><g fill="#CF2525"><g><g><path d="M 0.683594 -20.550781 C 0.683594 -18.714844 2.179688 -17.808594 3.675781 -17.808594 C 5.105469 -17.808594 6.570312 -18.714844 6.570312 -20.550781 C 6.570312 -22.480469 5.074219 -23.414062 3.582031 -23.414062 C 2.148438 -23.414062 0.683594 -22.449219 0.683594 -20.550781 Z M 1.152344 -16.84375 L 6.132812 -16.84375 L 6.132812 0 L 1.152344 0 Z M 1.152344 -16.84375" transform="translate(138.577 57.71)"/></g></g></g><g fill="#CF2525"><g><g><path d="M 5.542969 -15.722656 L 5.355469 -16.84375 L 0.933594 -16.84375 L 0.933594 0 L 5.824219 0 L 5.824219 -9.339844 C 5.824219 -11.613281 7.628906 -12.546875 9.402344 -12.578125 C 9.964844 -12.578125 10.554688 -12.484375 11.054688 -12.332031 L 11.117188 -16.9375 C 10.460938 -17.09375 9.808594 -17.1875 9.214844 -17.1875 C 7.847656 -17.1875 6.632812 -16.75 5.542969 -15.722656 Z M 5.542969 -15.722656" transform="translate(146.92 57.71)"/></g></g></g><g fill="#CF2525"><g><g><path d="M 8.96875 -22.042969 L 0.25 0 L 5.945312 0 L 7.160156 -3.207031 L 14.601562 -3.207031 L 15.816406 0 L 21.828125 0 L 12.765625 -22.042969 Z M 10.898438 -13.265625 L 12.578125 -8.53125 L 12.703125 -8.15625 L 9.09375 -8.15625 L 9.277344 -8.65625 Z M 10.898438 -13.265625" transform="translate(167.494 57.71)"/></g></g></g><g fill="#CF2525"><g><g><path d="M 17.375 -7.160156 L 12.515625 -7.160156 C 11.957031 -5.292969 10.429688 -4.421875 8.9375 -4.421875 C 7.066406 -4.421875 5.199219 -5.792969 5.199219 -8.4375 C 5.199219 -11.085938 7.066406 -12.453125 8.9375 -12.453125 C 10.429688 -12.453125 11.957031 -11.550781 12.515625 -9.683594 L 17.375 -9.683594 C 16.71875 -14.632812 12.828125 -17.0625 8.9375 -17.0625 C 4.671875 -17.0625 0.40625 -14.136719 0.40625 -8.4375 C 0.40625 -2.738281 4.671875 0.1875 8.9375 0.1875 C 12.828125 0.1875 16.71875 -2.242188 17.375 -7.160156 Z M 17.375 -7.160156" transform="translate(189.284 57.71)"/></g></g></g><g fill="#CF2525"><g><g><path d="M 8.59375 -17.125 C 3.113281 -17.125 0.4375 -13.265625 0.4375 -8.65625 C 0.4375 -4.015625 3.207031 0.21875 8.53125 0.21875 C 10.152344 0.21875 11.800781 -0.25 12.953125 -1.679688 L 12.953125 0 L 17.839844 0 L 17.839844 -16.84375 L 12.953125 -16.84375 L 12.953125 -15.101562 C 11.863281 -16.503906 10.242188 -17.125 8.59375 -17.125 Z M 9.121094 -4.484375 C 6.632812 -4.484375 5.355469 -6.507812 5.355469 -8.53125 C 5.355469 -10.585938 6.601562 -12.609375 9.121094 -12.609375 C 11.242188 -12.609375 12.953125 -10.773438 12.953125 -8.53125 C 12.953125 -6.289062 11.242188 -4.484375 9.121094 -4.484375 Z M 9.121094 -4.484375" transform="translate(208.396 57.71)"/></g></g></g><g fill="#CF2525"><g><g><path d="M 8.59375 -17.125 C 3.113281 -17.125 0.4375 -13.265625 0.4375 -8.65625 C 0.4375 -4.015625 3.207031 0.21875 8.53125 0.21875 C 10.152344 0.21875 11.800781 -0.25 12.953125 -1.679688 L 12.953125 0 L 17.839844 0 L 17.839844 -21.953125 L 12.953125 -21.953125 L 12.953125 -15.320312 C 11.832031 -16.597656 10.242188 -17.125 8.59375 -17.125 Z M 9.121094 -4.484375 C 6.632812 -4.484375 5.355469 -6.507812 5.355469 -8.53125 C 5.355469 -10.585938 6.601562 -12.609375 9.121094 -12.609375 C 11.242188 -12.609375 12.953125 -10.773438 12.953125 -8.53125 C 12.953125 -6.289062 11.242188 -4.484375 9.121094 -4.484375 Z M 9.121094 -4.484375" transform="translate(228.41 57.71)"/></g></g></g><g fill="#CF2525"><g><g><path d="M 17.808594 -8.46875 C 17.808594 -14.230469 13.449219 -17.09375 9.121094 -17.09375 C 4.734375 -17.09375 0.40625 -14.230469 0.40625 -8.46875 C 0.40625 -2.707031 4.734375 0.1875 9.09375 0.1875 C 12.578125 0.1875 16.035156 -1.648438 17.3125 -5.324219 L 11.988281 -5.324219 C 11.269531 -4.546875 10.242188 -4.171875 9.152344 -4.171875 C 7.660156 -4.203125 6.132812 -4.980469 5.542969 -6.539062 L 17.625 -6.539062 C 17.746094 -7.160156 17.808594 -7.785156 17.808594 -8.46875 Z M 12.453125 -10.367188 L 5.730469 -10.367188 C 6.226562 -12.019531 7.566406 -12.828125 9.03125 -12.828125 C 10.617188 -12.828125 11.988281 -12.050781 12.453125 -10.367188 Z M 12.453125 -10.367188" transform="translate(248.425 57.71)"/></g></g></g><g fill="#CF2525"><g><g><path d="M 6.070312 -15.164062 L 6.070312 -16.84375 L 1.121094 -16.84375 L 1.121094 0 L 6.320312 0 L 6.320312 -9.527344 C 6.320312 -11.394531 7.847656 -12.269531 9.0625 -12.269531 C 10.210938 -12.269531 11.210938 -11.519531 11.210938 -9.464844 L 11.210938 0 L 16.160156 0 L 16.160156 -9.589844 C 16.191406 -11.425781 17.933594 -12.269531 19.148438 -12.269531 C 20.300781 -12.269531 21.296875 -11.519531 21.296875 -9.464844 L 21.296875 0 L 26.25 0 L 26.25 -9.496094 C 26.308594 -15.007812 23.570312 -17.0625 20.238281 -17.0625 C 18.339844 -17.0625 16.097656 -16.347656 15.007812 -14.851562 C 14.199219 -16.160156 12.921875 -17.09375 10.898438 -17.09375 C 9.121094 -17.09375 7.222656 -16.625 6.070312 -15.164062 Z M 6.070312 -15.164062" transform="translate(268.347 57.71)"/></g></g></g><g fill="#CF2525"><g><g><path d="M 16.597656 -16.066406 L 16.597656 -16.84375 L 11.519531 -16.84375 L 9.433594 -11.457031 L 8.1875 -7.191406 L 7.003906 -11.457031 L 4.917969 -16.84375 L -0.1875 -16.84375 L -0.1875 -16.066406 L 5.417969 -1.371094 L 3.238281 4.171875 L 3.238281 4.917969 L 8.3125 4.917969 C 11.054688 -2.085938 13.824219 -9.0625 16.597656 -16.066406 Z M 16.597656 -16.066406" transform="translate(296.797 57.71)"/></g></g></g></svg>